<svg width="18" height="18" viewBox="0 0 18 18" fill="none" xmlns="http://www.w3.org/2000/svg">
<path d="M3.58341 13.5833H2.33341V4.41667H8.83342L8.16675 5.08333C8.00008 5.25 7.91675 5.41667 7.91675 5.66667C7.91675 6.16667 8.25008 6.5 8.75008 6.5C9.00008 6.5 9.16675 6.41667 9.33341 6.25L11.4167 4.16667C11.7501 3.83333 11.7501 3.33333 11.4167 3L9.33341 0.916666C9.00008 0.583333 8.50008 0.583333 8.16675 0.916666C7.83342 1.25 7.83342 1.75 8.16675 2.08333L8.83342 2.75H1.50008C1.00008 2.75 0.666748 3.08333 0.666748 3.58333V14.4167C0.666748 14.9167 1.00008 15.25 1.50008 15.25H3.58341C4.08341 15.25 4.41675 14.9167 4.41675 14.4167C4.41675 13.9167 4.08341 13.5833 3.58341 13.5833ZM16.5001 2.75H14.4167C13.9167 2.75 13.5834 3.08333 13.5834 3.58333C13.5834 4.08333 13.9167 4.41667 14.4167 4.41667H15.6667V13.5833H8.66675L9.33341 12.9167C9.66675 12.5833 9.66675 12.0833 9.33341 11.75C9.00008 11.4167 8.50008 11.4167 8.16675 11.75L6.08341 13.8333C5.75008 14.1667 5.75008 14.6667 6.08341 15L8.16675 17.0833C8.33342 17.25 8.50008 17.3333 8.75008 17.3333C9.00008 17.3333 9.16675 17.25 9.33341 17.0833C9.66675 16.75 9.66675 16.25 9.33341 15.9167L8.66675 15.25H16.5001C17.0001 15.25 17.3334 14.9167 17.3334 14.4167V3.58333C17.3334 3.08333 17.0001 2.75 16.5001 2.75Z" fill="#72767C"/>
</svg>
