<svg width="12" height="14" viewBox="0 0 12 14" fill="none" xmlns="http://www.w3.org/2000/svg">
<path d="M11.2254 5.3874C11.1701 5.27773 11.0856 5.18551 10.9811 5.12095C10.8767 5.05639 10.7564 5.02202 10.6336 5.02165H7.30855V1.03165C7.31568 0.8858 7.27462 0.74166 7.19169 0.621474C7.10876 0.501287 6.98858 0.411737 6.8497 0.366645C6.71618 0.322717 6.57218 0.322224 6.43837 0.365235C6.30456 0.408246 6.18781 0.492551 6.1049 0.606045L0.784888 7.92106C0.718233 8.01739 0.678208 8.12963 0.668866 8.2464C0.659524 8.36318 0.681196 8.48035 0.731688 8.58606C0.778187 8.70692 0.858962 8.81158 0.964099 8.88718C1.06924 8.96279 1.19416 9.00605 1.32354 9.01166H4.64854V13.0017C4.64865 13.1419 4.69308 13.2785 4.77549 13.392C4.8579 13.5054 4.97407 13.5899 5.10739 13.6334C5.17421 13.6541 5.24361 13.6653 5.31354 13.6667C5.41847 13.6669 5.52198 13.6424 5.61559 13.595C5.70921 13.5476 5.79029 13.4787 5.8522 13.394L11.1722 6.079C11.2439 5.97978 11.2867 5.86271 11.2961 5.74069C11.3055 5.61866 11.281 5.49641 11.2254 5.3874V5.3874ZM5.97855 10.9535V8.34666C5.97855 8.17029 5.90848 8.00114 5.78377 7.87643C5.65906 7.75172 5.48991 7.68166 5.31354 7.68166H2.65354L5.97855 3.07985V5.68665C5.97855 5.86302 6.04861 6.03217 6.17332 6.15688C6.29803 6.28159 6.46718 6.35165 6.64355 6.35165H9.30355L5.97855 10.9535Z" fill="#72767C"/>
</svg>
