<svg width="18" height="16" viewBox="0 0 18 16" fill="none" xmlns="http://www.w3.org/2000/svg">
<path d="M16.3101 5.63L15.1701 2.20917C15.0047 1.71124 14.6866 1.27808 14.261 0.971257C13.8354 0.66443 13.3239 0.499535 12.7992 0.500001H5.20091C4.67624 0.499535 4.16476 0.66443 3.73915 0.971257C3.31354 1.27808 2.99546 1.71124 2.83008 2.20917L1.69008 5.63C1.38726 5.75707 1.12865 5.97063 0.946619 6.24397C0.764592 6.51731 0.667239 6.83827 0.666748 7.16667V11.3333C0.666748 11.9608 1.01925 12.5017 1.53258 12.7858C1.52175 12.8408 1.50008 12.8908 1.50008 12.9483V14.6667C1.50008 14.8877 1.58788 15.0996 1.74416 15.2559C1.90044 15.4122 2.1124 15.5 2.33341 15.5H3.16675C3.38776 15.5 3.59972 15.4122 3.756 15.2559C3.91228 15.0996 4.00008 14.8877 4.00008 14.6667V13H14.0001V14.6667C14.0001 14.8877 14.0879 15.0996 14.2442 15.2559C14.4004 15.4122 14.6124 15.5 14.8334 15.5H15.6667C15.8878 15.5 16.0997 15.4122 16.256 15.2559C16.4123 15.0996 16.5001 14.8877 16.5001 14.6667V12.9483C16.5001 12.8908 16.4784 12.84 16.4676 12.7858C16.7288 12.6434 16.9469 12.4335 17.0992 12.178C17.2515 11.9225 17.3324 11.6308 17.3334 11.3333V7.16667C17.3334 6.47583 16.9101 5.8825 16.3101 5.63ZM2.33341 11.3333V7.16667H15.6667L15.6684 11.3333H2.33341ZM5.20091 2.16667H12.7984C13.1576 2.16667 13.4759 2.395 13.5892 2.73667L14.5109 5.5H3.48925L4.41008 2.73667C4.46537 2.57066 4.57151 2.42627 4.71346 2.32397C4.8554 2.22166 5.02594 2.16663 5.20091 2.16667Z" fill="#72767C"/>
<path d="M4.41675 10.5C5.1071 10.5 5.66675 9.94036 5.66675 9.25C5.66675 8.55964 5.1071 8 4.41675 8C3.72639 8 3.16675 8.55964 3.16675 9.25C3.16675 9.94036 3.72639 10.5 4.41675 10.5Z" fill="#72767C"/>
<path d="M13.5835 10.5C14.2739 10.5 14.8335 9.94036 14.8335 9.25C14.8335 8.55964 14.2739 8 13.5835 8C12.8931 8 12.3335 8.55964 12.3335 9.25C12.3335 9.94036 12.8931 10.5 13.5835 10.5Z" fill="#72767C"/>
</svg>
