<svg width="638" height="204" viewBox="0 0 638 204" fill="none" xmlns="http://www.w3.org/2000/svg">
<rect x="24" y="16" width="50" height="70" rx="4" fill="white"/>
<path d="M38.94 58L44.06 44H47.12L52.22 58H49.36L45.56 47.08L41.76 58H38.94ZM41.2 54.82L41.92 52.72H49.04L49.74 54.82H41.2ZM55.0347 58V47.1L52.6347 47.68V45.56L56.1747 44H57.8347V58H55.0347Z" fill="#72767C"/>
<rect x="84" y="16" width="50" height="70" rx="4" fill="white"/>
<path d="M96.44 58L101.56 44H104.62L109.72 58H106.86L103.06 47.08L99.26 58H96.44ZM98.7 54.82L99.42 52.72H106.54L107.24 54.82H98.7ZM111.16 58V56.02C112 55.34 112.82 54.66 113.62 53.98C114.42 53.3 115.14 52.6267 115.78 51.96C116.42 51.28 116.927 50.62 117.3 49.98C117.673 49.34 117.86 48.72 117.86 48.12C117.86 47.7467 117.787 47.4067 117.64 47.1C117.507 46.78 117.3 46.5267 117.02 46.34C116.74 46.14 116.367 46.04 115.9 46.04C115.447 46.04 115.06 46.1467 114.74 46.36C114.42 46.5733 114.18 46.86 114.02 47.22C113.86 47.5667 113.78 47.96 113.78 48.4H111.16C111.2 47.3733 111.433 46.5133 111.86 45.82C112.287 45.1267 112.86 44.6133 113.58 44.28C114.3 43.9333 115.1 43.76 115.98 43.76C116.967 43.76 117.8 43.9467 118.48 44.32C119.16 44.68 119.673 45.1733 120.02 45.8C120.38 46.4267 120.56 47.1467 120.56 47.96C120.56 48.5733 120.447 49.1733 120.22 49.76C119.993 50.3467 119.687 50.92 119.3 51.48C118.913 52.0267 118.473 52.5533 117.98 53.06C117.487 53.5667 116.973 54.0533 116.44 54.52C115.92 54.9733 115.407 55.4 114.9 55.8H120.88V58H111.16Z" fill="#72767C"/>
<rect x="144" y="16" width="50" height="70" rx="4" fill="white"/>
<path d="M156.44 58L161.56 44H164.62L169.72 58H166.86L163.06 47.08L159.26 58H156.44ZM158.7 54.82L159.42 52.72H166.54L167.24 54.82H158.7ZM175.73 58.24C174.823 58.24 173.99 58.0733 173.23 57.74C172.47 57.4067 171.863 56.9 171.41 56.22C170.956 55.54 170.716 54.68 170.69 53.64H173.35C173.363 54.08 173.463 54.48 173.65 54.84C173.836 55.1867 174.103 55.4667 174.45 55.68C174.81 55.88 175.243 55.98 175.75 55.98C176.216 55.98 176.61 55.8867 176.93 55.7C177.263 55.5133 177.516 55.2667 177.69 54.96C177.863 54.6533 177.95 54.3 177.95 53.9C177.95 53.4333 177.836 53.0467 177.61 52.74C177.383 52.42 177.063 52.18 176.65 52.02C176.25 51.8467 175.783 51.76 175.25 51.76H174.21V49.54H175.25C175.903 49.54 176.45 49.3867 176.89 49.08C177.343 48.7733 177.57 48.32 177.57 47.72C177.57 47.2133 177.403 46.8067 177.07 46.5C176.75 46.1933 176.303 46.04 175.73 46.04C175.09 46.04 174.59 46.2267 174.23 46.6C173.883 46.9733 173.69 47.4333 173.65 47.98H171.01C171.05 47.1 171.27 46.3467 171.67 45.72C172.07 45.08 172.616 44.5933 173.31 44.26C174.003 43.9267 174.81 43.76 175.73 43.76C176.703 43.76 177.523 43.9333 178.19 44.28C178.856 44.6133 179.363 45.0667 179.71 45.64C180.056 46.2133 180.23 46.8333 180.23 47.5C180.23 48.0467 180.123 48.5333 179.91 48.96C179.71 49.3733 179.436 49.72 179.09 50C178.756 50.28 178.376 50.48 177.95 50.6C178.483 50.7067 178.943 50.9133 179.33 51.22C179.73 51.5267 180.036 51.9133 180.25 52.38C180.476 52.8467 180.59 53.3867 180.59 54C180.59 54.76 180.403 55.4667 180.03 56.12C179.656 56.76 179.11 57.2733 178.39 57.66C177.67 58.0467 176.783 58.24 175.73 58.24Z" fill="#72767C"/>
<g filter="url(#filter0_d_294_1239)">
<rect x="204" y="16" width="50" height="70" rx="4" fill="#FF6370" shape-rendering="crispEdges"/>
<path d="M215.94 58L221.06 44H224.12L229.22 58H226.36L222.56 47.08L218.76 58H215.94ZM218.2 54.82L218.92 52.72H226.04L226.74 54.82H218.2ZM237.127 58V55.46H230.247V53.32L236.767 44H239.827V53.12H241.647V55.46H239.827V58H237.127ZM233.127 53.12H237.307V46.98L233.127 53.12Z" fill="white"/>
</g>
<rect x="264" y="16" width="50" height="70" rx="4" fill="white"/>
<path d="M276.44 58L281.56 44H284.62L289.72 58H286.86L283.06 47.08L279.26 58H276.44ZM278.7 54.82L279.42 52.72H286.54L287.24 54.82H278.7ZM295.877 58.24C294.837 58.24 293.943 58.06 293.197 57.7C292.463 57.34 291.89 56.8467 291.477 56.22C291.063 55.58 290.823 54.86 290.757 54.06H293.377C293.483 54.5933 293.763 55.04 294.217 55.4C294.67 55.76 295.223 55.94 295.877 55.94C296.357 55.94 296.777 55.82 297.137 55.58C297.497 55.34 297.777 55.0133 297.977 54.6C298.19 54.1867 298.297 53.72 298.297 53.2C298.297 52.6667 298.19 52.2067 297.977 51.82C297.777 51.42 297.497 51.12 297.137 50.92C296.777 50.7067 296.363 50.6 295.897 50.6C295.337 50.6 294.843 50.74 294.417 51.02C294.003 51.3 293.71 51.64 293.537 52.04H290.937L292.137 44H299.957V46.36H294.137L293.537 49.46C293.83 49.1533 294.223 48.9 294.717 48.7C295.21 48.5 295.763 48.4 296.377 48.4C297.137 48.4 297.797 48.5333 298.357 48.8C298.917 49.0533 299.383 49.4067 299.757 49.86C300.143 50.3 300.43 50.8067 300.617 51.38C300.803 51.9533 300.897 52.5533 300.897 53.18C300.897 53.9133 300.77 54.5933 300.517 55.22C300.277 55.8333 299.93 56.3667 299.477 56.82C299.037 57.2733 298.51 57.6267 297.897 57.88C297.283 58.12 296.61 58.24 295.877 58.24Z" fill="#72767C"/>
<rect x="324" y="16" width="50" height="70" rx="4" fill="white"/>
<path d="M335.94 58L341.06 44H344.12L349.22 58H346.36L342.56 47.08L338.76 58H335.94ZM338.2 54.82L338.92 52.72H346.04L346.74 54.82H338.2ZM355.695 58.24C354.641 58.24 353.748 58.0467 353.015 57.66C352.295 57.26 351.715 56.74 351.275 56.1C350.835 55.4467 350.515 54.72 350.315 53.92C350.128 53.1067 350.035 52.2867 350.035 51.46C350.035 49.8867 350.255 48.5267 350.695 47.38C351.135 46.2333 351.768 45.3467 352.595 44.72C353.435 44.08 354.441 43.76 355.615 43.76C356.588 43.76 357.415 43.9533 358.095 44.34C358.775 44.7133 359.301 45.2133 359.675 45.84C360.048 46.4533 360.268 47.1133 360.335 47.82H357.815C357.708 47.2333 357.461 46.78 357.075 46.46C356.688 46.14 356.188 45.98 355.575 45.98C355.015 45.98 354.521 46.1533 354.095 46.5C353.668 46.8467 353.335 47.3667 353.095 48.06C352.855 48.7533 352.715 49.6267 352.675 50.68C352.675 50.6933 352.675 50.7133 352.675 50.74C352.675 50.7533 352.675 50.7733 352.675 50.8C352.888 50.44 353.168 50.12 353.515 49.84C353.875 49.56 354.281 49.34 354.735 49.18C355.188 49.02 355.661 48.94 356.155 48.94C356.941 48.94 357.668 49.1267 358.335 49.5C359.015 49.8733 359.561 50.4 359.975 51.08C360.388 51.76 360.595 52.5667 360.595 53.5C360.595 54.34 360.388 55.1267 359.975 55.86C359.561 56.58 358.988 57.16 358.255 57.6C357.521 58.0267 356.668 58.24 355.695 58.24ZM355.535 55.92C356.015 55.92 356.441 55.82 356.815 55.62C357.188 55.42 357.481 55.1467 357.695 54.8C357.908 54.44 358.015 54.0333 358.015 53.58C358.015 53.1 357.908 52.6867 357.695 52.34C357.481 51.9933 357.181 51.72 356.795 51.52C356.421 51.32 355.995 51.22 355.515 51.22C355.048 51.22 354.621 51.3267 354.235 51.54C353.861 51.74 353.561 52.02 353.335 52.38C353.121 52.7267 353.015 53.12 353.015 53.56C353.015 54.0267 353.121 54.44 353.335 54.8C353.561 55.1467 353.861 55.42 354.235 55.62C354.621 55.82 355.055 55.92 355.535 55.92Z" fill="#72767C"/>
<rect x="384" y="16" width="50" height="70" rx="4" fill="white"/>
<path d="M396.94 58L402.06 44H405.12L410.22 58H407.36L403.56 47.08L399.76 58H396.94ZM399.2 54.82L399.92 52.72H407.04L407.74 54.82H399.2ZM412.585 58L417.785 46.3H411.005V44H420.545V45.9L415.385 58H412.585Z" fill="#72767C"/>
<rect x="444" y="16" width="50" height="70" rx="4" fill="white"/>
<path d="M455.94 58L461.06 44H464.12L469.22 58H466.36L462.56 47.08L458.76 58H455.94ZM458.2 54.82L458.92 52.72H466.04L466.74 54.82H458.2ZM475.492 58.24C474.532 58.24 473.665 58.0667 472.892 57.72C472.119 57.3733 471.499 56.8867 471.032 56.26C470.565 55.6333 470.332 54.9067 470.332 54.08C470.332 53.5067 470.432 52.9867 470.632 52.52C470.832 52.0533 471.105 51.64 471.452 51.28C471.812 50.92 472.232 50.6467 472.712 50.46C472.099 50.18 471.605 49.78 471.232 49.26C470.872 48.74 470.692 48.1533 470.692 47.5C470.692 46.8467 470.872 46.2333 471.232 45.66C471.592 45.0867 472.125 44.6267 472.832 44.28C473.552 43.9333 474.439 43.76 475.492 43.76C476.545 43.76 477.425 43.9333 478.132 44.28C478.852 44.6267 479.392 45.0867 479.752 45.66C480.112 46.2333 480.292 46.8467 480.292 47.5C480.292 48.14 480.105 48.7267 479.732 49.26C479.359 49.78 478.872 50.18 478.272 50.46C478.765 50.66 479.185 50.94 479.532 51.3C479.892 51.6467 480.165 52.0533 480.352 52.52C480.552 52.9867 480.652 53.5067 480.652 54.08C480.652 54.9067 480.419 55.6333 479.952 56.26C479.499 56.8867 478.879 57.3733 478.092 57.72C477.319 58.0667 476.452 58.24 475.492 58.24ZM475.492 55.98C476.319 55.98 476.939 55.78 477.352 55.38C477.779 54.98 477.992 54.4733 477.992 53.86C477.992 53.18 477.772 52.6467 477.332 52.26C476.892 51.86 476.279 51.66 475.492 51.66C474.705 51.66 474.085 51.86 473.632 52.26C473.192 52.6467 472.972 53.18 472.972 53.86C472.972 54.4733 473.185 54.98 473.612 55.38C474.052 55.78 474.679 55.98 475.492 55.98ZM475.492 49.68C476.172 49.68 476.699 49.5067 477.072 49.16C477.445 48.8133 477.632 48.3667 477.632 47.82C477.632 47.2333 477.445 46.78 477.072 46.46C476.699 46.1267 476.172 45.96 475.492 45.96C474.812 45.96 474.285 46.1267 473.912 46.46C473.539 46.78 473.352 47.24 473.352 47.84C473.352 48.3733 473.539 48.8133 473.912 49.16C474.285 49.5067 474.812 49.68 475.492 49.68Z" fill="#72767C"/>
<rect x="504" y="16" width="50" height="70" rx="4" fill="white"/>
<path d="M515.94 58L521.06 44H524.12L529.22 58H526.36L522.56 47.08L518.76 58H515.94ZM518.2 54.82L518.92 52.72H526.04L526.74 54.82H518.2ZM535.117 58.24C534.13 58.24 533.297 58.0533 532.617 57.68C531.95 57.2933 531.43 56.7933 531.057 56.18C530.683 55.5533 530.463 54.8867 530.397 54.18H532.897C533.017 54.7667 533.263 55.22 533.637 55.54C534.023 55.86 534.523 56.02 535.137 56.02C535.71 56.02 536.203 55.8533 536.617 55.52C537.043 55.1733 537.377 54.66 537.617 53.98C537.87 53.2867 538.01 52.42 538.037 51.38C538.037 51.3533 538.037 51.3267 538.037 51.3C538.037 51.2733 538.037 51.24 538.037 51.2C537.837 51.56 537.557 51.88 537.197 52.16C536.837 52.44 536.43 52.66 535.977 52.82C535.537 52.98 535.063 53.06 534.557 53.06C533.797 53.06 533.077 52.8733 532.397 52.5C531.717 52.1267 531.163 51.6 530.737 50.92C530.323 50.24 530.117 49.4333 530.117 48.5C530.117 47.6467 530.323 46.86 530.737 46.14C531.15 45.42 531.723 44.8467 532.457 44.42C533.203 43.98 534.057 43.76 535.017 43.76C536.083 43.76 536.977 43.96 537.697 44.36C538.43 44.7467 539.01 45.2667 539.437 45.92C539.877 46.56 540.19 47.2867 540.377 48.1C540.577 48.9 540.677 49.7133 540.677 50.54C540.677 52.1 540.457 53.46 540.017 54.62C539.59 55.7667 538.957 56.66 538.117 57.3C537.29 57.9267 536.29 58.24 535.117 58.24ZM535.197 50.78C535.677 50.78 536.103 50.68 536.477 50.48C536.85 50.2667 537.143 49.9867 537.357 49.64C537.583 49.28 537.697 48.88 537.697 48.44C537.697 47.9733 537.583 47.5667 537.357 47.22C537.143 46.86 536.843 46.58 536.457 46.38C536.083 46.18 535.657 46.08 535.177 46.08C534.697 46.08 534.27 46.18 533.897 46.38C533.523 46.58 533.23 46.8533 533.017 47.2C532.803 47.5467 532.697 47.9533 532.697 48.42C532.697 48.8867 532.803 49.3 533.017 49.66C533.23 50.0067 533.523 50.28 533.897 50.48C534.283 50.68 534.717 50.78 535.197 50.78Z" fill="#72767C"/>
<g filter="url(#filter1_d_294_1239)">
<rect x="564" y="16" width="50" height="70" rx="4" fill="#FF6370" shape-rendering="crispEdges"/>
<path d="M571.94 58L577.06 44H580.12L585.22 58H582.36L578.56 47.08L574.76 58H571.94ZM574.2 54.82L574.92 52.72H582.04L582.74 54.82H574.2ZM588.035 58V47.1L585.635 47.68V45.56L589.175 44H590.835V58H588.035ZM599.284 58.24C597.99 58.24 596.884 57.9333 595.964 57.32C595.044 56.7067 594.33 55.86 593.824 54.78C593.33 53.6867 593.084 52.4267 593.084 51C593.084 49.5733 593.33 48.32 593.824 47.24C594.33 46.1467 595.044 45.2933 595.964 44.68C596.884 44.0667 597.99 43.76 599.284 43.76C600.577 43.76 601.684 44.0667 602.604 44.68C603.524 45.2933 604.23 46.1467 604.724 47.24C605.217 48.32 605.464 49.5733 605.464 51C605.464 52.4267 605.217 53.6867 604.724 54.78C604.23 55.86 603.517 56.7067 602.584 57.32C601.664 57.9333 600.564 58.24 599.284 58.24ZM599.284 55.82C599.964 55.82 600.557 55.6267 601.064 55.24C601.584 54.84 601.984 54.28 602.264 53.56C602.557 52.84 602.704 51.9867 602.704 51C602.704 50 602.557 49.1467 602.264 48.44C601.984 47.72 601.584 47.1667 601.064 46.78C600.557 46.3933 599.964 46.2 599.284 46.2C598.604 46.2 598.004 46.3933 597.484 46.78C596.964 47.1667 596.557 47.72 596.264 48.44C595.984 49.1467 595.844 50 595.844 51C595.844 51.9867 595.984 52.84 596.264 53.56C596.557 54.28 596.964 54.84 597.484 55.24C598.004 55.6267 598.604 55.82 599.284 55.82Z" fill="white"/>
</g>
<g filter="url(#filter2_d_294_1239)">
<rect x="24" y="102" width="50" height="70" rx="4" fill="#FF6370" shape-rendering="crispEdges"/>
<path d="M40.36 144V130H46.1C47.0733 130 47.8867 130.153 48.54 130.46C49.2067 130.767 49.7133 131.193 50.06 131.74C50.4067 132.273 50.58 132.893 50.58 133.6C50.58 134.307 50.4267 134.9 50.12 135.38C49.8133 135.86 49.4067 136.233 48.9 136.5C48.4067 136.753 47.86 136.9 47.26 136.94L47.58 136.72C48.22 136.747 48.7867 136.92 49.28 137.24C49.7867 137.547 50.18 137.96 50.46 138.48C50.7533 139 50.9 139.567 50.9 140.18C50.9 140.927 50.72 141.587 50.36 142.16C50 142.733 49.4733 143.187 48.78 143.52C48.1 143.84 47.2667 144 46.28 144H40.36ZM43.06 141.8H45.86C46.5933 141.8 47.16 141.633 47.56 141.3C47.96 140.967 48.16 140.487 48.16 139.86C48.16 139.233 47.9533 138.747 47.54 138.4C47.1267 138.04 46.5533 137.86 45.82 137.86H43.06V141.8ZM43.06 135.84H45.66C46.3667 135.84 46.9 135.68 47.26 135.36C47.6333 135.04 47.82 134.587 47.82 134C47.82 133.427 47.6333 132.98 47.26 132.66C46.9 132.327 46.36 132.16 45.64 132.16H43.06V135.84ZM54.6948 144V133.1L52.2948 133.68V131.56L55.8348 130H57.4948V144H54.6948Z" fill="white"/>
</g>
<rect x="84" y="102" width="50" height="70" rx="4" fill="white"/>
<path d="M97.86 144V130H103.6C104.573 130 105.387 130.153 106.04 130.46C106.707 130.767 107.213 131.193 107.56 131.74C107.907 132.273 108.08 132.893 108.08 133.6C108.08 134.307 107.927 134.9 107.62 135.38C107.313 135.86 106.907 136.233 106.4 136.5C105.907 136.753 105.36 136.9 104.76 136.94L105.08 136.72C105.72 136.747 106.287 136.92 106.78 137.24C107.287 137.547 107.68 137.96 107.96 138.48C108.253 139 108.4 139.567 108.4 140.18C108.4 140.927 108.22 141.587 107.86 142.16C107.5 142.733 106.973 143.187 106.28 143.52C105.6 143.84 104.767 144 103.78 144H97.86ZM100.56 141.8H103.36C104.093 141.8 104.66 141.633 105.06 141.3C105.46 140.967 105.66 140.487 105.66 139.86C105.66 139.233 105.453 138.747 105.04 138.4C104.627 138.04 104.053 137.86 103.32 137.86H100.56V141.8ZM100.56 135.84H103.16C103.867 135.84 104.4 135.68 104.76 135.36C105.133 135.04 105.32 134.587 105.32 134C105.32 133.427 105.133 132.98 104.76 132.66C104.4 132.327 103.86 132.16 103.14 132.16H100.56V135.84ZM110.215 144V142.02C111.055 141.34 111.875 140.66 112.675 139.98C113.475 139.3 114.195 138.627 114.835 137.96C115.475 137.28 115.982 136.62 116.355 135.98C116.728 135.34 116.915 134.72 116.915 134.12C116.915 133.747 116.842 133.407 116.695 133.1C116.562 132.78 116.355 132.527 116.075 132.34C115.795 132.14 115.422 132.04 114.955 132.04C114.502 132.04 114.115 132.147 113.795 132.36C113.475 132.573 113.235 132.86 113.075 133.22C112.915 133.567 112.835 133.96 112.835 134.4H110.215C110.255 133.373 110.488 132.513 110.915 131.82C111.342 131.127 111.915 130.613 112.635 130.28C113.355 129.933 114.155 129.76 115.035 129.76C116.022 129.76 116.855 129.947 117.535 130.32C118.215 130.68 118.728 131.173 119.075 131.8C119.435 132.427 119.615 133.147 119.615 133.96C119.615 134.573 119.502 135.173 119.275 135.76C119.048 136.347 118.742 136.92 118.355 137.48C117.968 138.027 117.528 138.553 117.035 139.06C116.542 139.567 116.028 140.053 115.495 140.52C114.975 140.973 114.462 141.4 113.955 141.8H119.935V144H110.215Z" fill="#72767C"/>
<rect x="144" y="102" width="50" height="70" rx="4" fill="white"/>
<path d="M157.86 144V130H163.6C164.573 130 165.387 130.153 166.04 130.46C166.707 130.767 167.213 131.193 167.56 131.74C167.907 132.273 168.08 132.893 168.08 133.6C168.08 134.307 167.927 134.9 167.62 135.38C167.313 135.86 166.907 136.233 166.4 136.5C165.907 136.753 165.36 136.9 164.76 136.94L165.08 136.72C165.72 136.747 166.287 136.92 166.78 137.24C167.287 137.547 167.68 137.96 167.96 138.48C168.253 139 168.4 139.567 168.4 140.18C168.4 140.927 168.22 141.587 167.86 142.16C167.5 142.733 166.973 143.187 166.28 143.52C165.6 143.84 164.767 144 163.78 144H157.86ZM160.56 141.8H163.36C164.093 141.8 164.66 141.633 165.06 141.3C165.46 140.967 165.66 140.487 165.66 139.86C165.66 139.233 165.453 138.747 165.04 138.4C164.627 138.04 164.053 137.86 163.32 137.86H160.56V141.8ZM160.56 135.84H163.16C163.867 135.84 164.4 135.68 164.76 135.36C165.133 135.04 165.32 134.587 165.32 134C165.32 133.427 165.133 132.98 164.76 132.66C164.4 132.327 163.86 132.16 163.14 132.16H160.56V135.84ZM175.175 144.24C174.268 144.24 173.435 144.073 172.675 143.74C171.915 143.407 171.308 142.9 170.855 142.22C170.402 141.54 170.162 140.68 170.135 139.64H172.795C172.808 140.08 172.908 140.48 173.095 140.84C173.282 141.187 173.548 141.467 173.895 141.68C174.255 141.88 174.688 141.98 175.195 141.98C175.662 141.98 176.055 141.887 176.375 141.7C176.708 141.513 176.962 141.267 177.135 140.96C177.308 140.653 177.395 140.3 177.395 139.9C177.395 139.433 177.282 139.047 177.055 138.74C176.828 138.42 176.508 138.18 176.095 138.02C175.695 137.847 175.228 137.76 174.695 137.76H173.655V135.54H174.695C175.348 135.54 175.895 135.387 176.335 135.08C176.788 134.773 177.015 134.32 177.015 133.72C177.015 133.213 176.848 132.807 176.515 132.5C176.195 132.193 175.748 132.04 175.175 132.04C174.535 132.04 174.035 132.227 173.675 132.6C173.328 132.973 173.135 133.433 173.095 133.98H170.455C170.495 133.1 170.715 132.347 171.115 131.72C171.515 131.08 172.062 130.593 172.755 130.26C173.448 129.927 174.255 129.76 175.175 129.76C176.148 129.76 176.968 129.933 177.635 130.28C178.302 130.613 178.808 131.067 179.155 131.64C179.502 132.213 179.675 132.833 179.675 133.5C179.675 134.047 179.568 134.533 179.355 134.96C179.155 135.373 178.882 135.72 178.535 136C178.202 136.28 177.822 136.48 177.395 136.6C177.928 136.707 178.388 136.913 178.775 137.22C179.175 137.527 179.482 137.913 179.695 138.38C179.922 138.847 180.035 139.387 180.035 140C180.035 140.76 179.848 141.467 179.475 142.12C179.102 142.76 178.555 143.273 177.835 143.66C177.115 144.047 176.228 144.24 175.175 144.24Z" fill="#72767C"/>
<rect x="204" y="102" width="50" height="70" rx="4" fill="white"/>
<path d="M217.36 144V130H223.1C224.073 130 224.887 130.153 225.54 130.46C226.207 130.767 226.713 131.193 227.06 131.74C227.407 132.273 227.58 132.893 227.58 133.6C227.58 134.307 227.427 134.9 227.12 135.38C226.813 135.86 226.407 136.233 225.9 136.5C225.407 136.753 224.86 136.9 224.26 136.94L224.58 136.72C225.22 136.747 225.787 136.92 226.28 137.24C226.787 137.547 227.18 137.96 227.46 138.48C227.753 139 227.9 139.567 227.9 140.18C227.9 140.927 227.72 141.587 227.36 142.16C227 142.733 226.473 143.187 225.78 143.52C225.1 143.84 224.267 144 223.28 144H217.36ZM220.06 141.8H222.86C223.593 141.8 224.16 141.633 224.56 141.3C224.96 140.967 225.16 140.487 225.16 139.86C225.16 139.233 224.953 138.747 224.54 138.4C224.127 138.04 223.553 137.86 222.82 137.86H220.06V141.8ZM220.06 135.84H222.66C223.367 135.84 223.9 135.68 224.26 135.36C224.633 135.04 224.82 134.587 224.82 134C224.82 133.427 224.633 132.98 224.26 132.66C223.9 132.327 223.36 132.16 222.64 132.16H220.06V135.84ZM236.475 144V141.46H229.595V139.32L236.115 130H239.175V139.12H240.995V141.46H239.175V144H236.475ZM232.475 139.12H236.655V132.98L232.475 139.12Z" fill="#72767C"/>
<rect x="264" y="102" width="50" height="70" rx="4" fill="white"/>
<path d="M277.36 144V130H283.1C284.073 130 284.887 130.153 285.54 130.46C286.207 130.767 286.713 131.193 287.06 131.74C287.407 132.273 287.58 132.893 287.58 133.6C287.58 134.307 287.427 134.9 287.12 135.38C286.813 135.86 286.407 136.233 285.9 136.5C285.407 136.753 284.86 136.9 284.26 136.94L284.58 136.72C285.22 136.747 285.787 136.92 286.28 137.24C286.787 137.547 287.18 137.96 287.46 138.48C287.753 139 287.9 139.567 287.9 140.18C287.9 140.927 287.72 141.587 287.36 142.16C287 142.733 286.473 143.187 285.78 143.52C285.1 143.84 284.267 144 283.28 144H277.36ZM280.06 141.8H282.86C283.593 141.8 284.16 141.633 284.56 141.3C284.96 140.967 285.16 140.487 285.16 139.86C285.16 139.233 284.953 138.747 284.54 138.4C284.127 138.04 283.553 137.86 282.82 137.86H280.06V141.8ZM280.06 135.84H282.66C283.367 135.84 283.9 135.68 284.26 135.36C284.633 135.04 284.82 134.587 284.82 134C284.82 133.427 284.633 132.98 284.26 132.66C283.9 132.327 283.36 132.16 282.64 132.16H280.06V135.84ZM295.115 144.24C294.075 144.24 293.182 144.06 292.435 143.7C291.702 143.34 291.128 142.847 290.715 142.22C290.302 141.58 290.062 140.86 289.995 140.06H292.615C292.722 140.593 293.002 141.04 293.455 141.4C293.908 141.76 294.462 141.94 295.115 141.94C295.595 141.94 296.015 141.82 296.375 141.58C296.735 141.34 297.015 141.013 297.215 140.6C297.428 140.187 297.535 139.72 297.535 139.2C297.535 138.667 297.428 138.207 297.215 137.82C297.015 137.42 296.735 137.12 296.375 136.92C296.015 136.707 295.602 136.6 295.135 136.6C294.575 136.6 294.082 136.74 293.655 137.02C293.242 137.3 292.948 137.64 292.775 138.04H290.175L291.375 130H299.195V132.36H293.375L292.775 135.46C293.068 135.153 293.462 134.9 293.955 134.7C294.448 134.5 295.002 134.4 295.615 134.4C296.375 134.4 297.035 134.533 297.595 134.8C298.155 135.053 298.622 135.407 298.995 135.86C299.382 136.3 299.668 136.807 299.855 137.38C300.042 137.953 300.135 138.553 300.135 139.18C300.135 139.913 300.008 140.593 299.755 141.22C299.515 141.833 299.168 142.367 298.715 142.82C298.275 143.273 297.748 143.627 297.135 143.88C296.522 144.12 295.848 144.24 295.115 144.24Z" fill="#72767C"/>
<rect x="324" y="102" width="50" height="70" rx="4" fill="white"/>
<path d="M337.36 144V130H343.1C344.073 130 344.887 130.153 345.54 130.46C346.207 130.767 346.713 131.193 347.06 131.74C347.407 132.273 347.58 132.893 347.58 133.6C347.58 134.307 347.427 134.9 347.12 135.38C346.813 135.86 346.407 136.233 345.9 136.5C345.407 136.753 344.86 136.9 344.26 136.94L344.58 136.72C345.22 136.747 345.787 136.92 346.28 137.24C346.787 137.547 347.18 137.96 347.46 138.48C347.753 139 347.9 139.567 347.9 140.18C347.9 140.927 347.72 141.587 347.36 142.16C347 142.733 346.473 143.187 345.78 143.52C345.1 143.84 344.267 144 343.28 144H337.36ZM340.06 141.8H342.86C343.593 141.8 344.16 141.633 344.56 141.3C344.96 140.967 345.16 140.487 345.16 139.86C345.16 139.233 344.953 138.747 344.54 138.4C344.127 138.04 343.553 137.86 342.82 137.86H340.06V141.8ZM340.06 135.84H342.66C343.367 135.84 343.9 135.68 344.26 135.36C344.633 135.04 344.82 134.587 344.82 134C344.82 133.427 344.633 132.98 344.26 132.66C343.9 132.327 343.36 132.16 342.64 132.16H340.06V135.84ZM355.355 144.24C354.302 144.24 353.408 144.047 352.675 143.66C351.955 143.26 351.375 142.74 350.935 142.1C350.495 141.447 350.175 140.72 349.975 139.92C349.788 139.107 349.695 138.287 349.695 137.46C349.695 135.887 349.915 134.527 350.355 133.38C350.795 132.233 351.428 131.347 352.255 130.72C353.095 130.08 354.102 129.76 355.275 129.76C356.248 129.76 357.075 129.953 357.755 130.34C358.435 130.713 358.962 131.213 359.335 131.84C359.708 132.453 359.928 133.113 359.995 133.82H357.475C357.368 133.233 357.122 132.78 356.735 132.46C356.348 132.14 355.848 131.98 355.235 131.98C354.675 131.98 354.182 132.153 353.755 132.5C353.328 132.847 352.995 133.367 352.755 134.06C352.515 134.753 352.375 135.627 352.335 136.68C352.335 136.693 352.335 136.713 352.335 136.74C352.335 136.753 352.335 136.773 352.335 136.8C352.548 136.44 352.828 136.12 353.175 135.84C353.535 135.56 353.942 135.34 354.395 135.18C354.848 135.02 355.322 134.94 355.815 134.94C356.602 134.94 357.328 135.127 357.995 135.5C358.675 135.873 359.222 136.4 359.635 137.08C360.048 137.76 360.255 138.567 360.255 139.5C360.255 140.34 360.048 141.127 359.635 141.86C359.222 142.58 358.648 143.16 357.915 143.6C357.182 144.027 356.328 144.24 355.355 144.24ZM355.195 141.92C355.675 141.92 356.102 141.82 356.475 141.62C356.848 141.42 357.142 141.147 357.355 140.8C357.568 140.44 357.675 140.033 357.675 139.58C357.675 139.1 357.568 138.687 357.355 138.34C357.142 137.993 356.842 137.72 356.455 137.52C356.082 137.32 355.655 137.22 355.175 137.22C354.708 137.22 354.282 137.327 353.895 137.54C353.522 137.74 353.222 138.02 352.995 138.38C352.782 138.727 352.675 139.12 352.675 139.56C352.675 140.027 352.782 140.44 352.995 140.8C353.222 141.147 353.522 141.42 353.895 141.62C354.282 141.82 354.715 141.92 355.195 141.92Z" fill="#72767C"/>
<g filter="url(#filter3_d_294_1239)">
<rect x="384" y="102" width="50" height="70" rx="4" fill="#FF6370" shape-rendering="crispEdges"/>
<path d="M398.36 144V130H404.1C405.073 130 405.887 130.153 406.54 130.46C407.207 130.767 407.713 131.193 408.06 131.74C408.407 132.273 408.58 132.893 408.58 133.6C408.58 134.307 408.427 134.9 408.12 135.38C407.813 135.86 407.407 136.233 406.9 136.5C406.407 136.753 405.86 136.9 405.26 136.94L405.58 136.72C406.22 136.747 406.787 136.92 407.28 137.24C407.787 137.547 408.18 137.96 408.46 138.48C408.753 139 408.9 139.567 408.9 140.18C408.9 140.927 408.72 141.587 408.36 142.16C408 142.733 407.473 143.187 406.78 143.52C406.1 143.84 405.267 144 404.28 144H398.36ZM401.06 141.8H403.86C404.593 141.8 405.16 141.633 405.56 141.3C405.96 140.967 406.16 140.487 406.16 139.86C406.16 139.233 405.953 138.747 405.54 138.4C405.127 138.04 404.553 137.86 403.82 137.86H401.06V141.8ZM401.06 135.84H403.66C404.367 135.84 404.9 135.68 405.26 135.36C405.633 135.04 405.82 134.587 405.82 134C405.82 133.427 405.633 132.98 405.26 132.66C404.9 132.327 404.36 132.16 403.64 132.16H401.06V135.84ZM411.855 144L417.055 132.3H410.275V130H419.815V131.9L414.655 144H411.855Z" fill="white"/>
</g>
<rect x="444" y="102" width="50" height="70" rx="4" fill="white"/>
<path d="M457.36 144V130H463.1C464.073 130 464.887 130.153 465.54 130.46C466.207 130.767 466.713 131.193 467.06 131.74C467.407 132.273 467.58 132.893 467.58 133.6C467.58 134.307 467.427 134.9 467.12 135.38C466.813 135.86 466.407 136.233 465.9 136.5C465.407 136.753 464.86 136.9 464.26 136.94L464.58 136.72C465.22 136.747 465.787 136.92 466.28 137.24C466.787 137.547 467.18 137.96 467.46 138.48C467.753 139 467.9 139.567 467.9 140.18C467.9 140.927 467.72 141.587 467.36 142.16C467 142.733 466.473 143.187 465.78 143.52C465.1 143.84 464.267 144 463.28 144H457.36ZM460.06 141.8H462.86C463.593 141.8 464.16 141.633 464.56 141.3C464.96 140.967 465.16 140.487 465.16 139.86C465.16 139.233 464.953 138.747 464.54 138.4C464.127 138.04 463.553 137.86 462.82 137.86H460.06V141.8ZM460.06 135.84H462.66C463.367 135.84 463.9 135.68 464.26 135.36C464.633 135.04 464.82 134.587 464.82 134C464.82 133.427 464.633 132.98 464.26 132.66C463.9 132.327 463.36 132.16 462.64 132.16H460.06V135.84ZM475.035 144.24C474.075 144.24 473.208 144.067 472.435 143.72C471.662 143.373 471.042 142.887 470.575 142.26C470.108 141.633 469.875 140.907 469.875 140.08C469.875 139.507 469.975 138.987 470.175 138.52C470.375 138.053 470.648 137.64 470.995 137.28C471.355 136.92 471.775 136.647 472.255 136.46C471.642 136.18 471.148 135.78 470.775 135.26C470.415 134.74 470.235 134.153 470.235 133.5C470.235 132.847 470.415 132.233 470.775 131.66C471.135 131.087 471.668 130.627 472.375 130.28C473.095 129.933 473.982 129.76 475.035 129.76C476.088 129.76 476.968 129.933 477.675 130.28C478.395 130.627 478.935 131.087 479.295 131.66C479.655 132.233 479.835 132.847 479.835 133.5C479.835 134.14 479.648 134.727 479.275 135.26C478.902 135.78 478.415 136.18 477.815 136.46C478.308 136.66 478.728 136.94 479.075 137.3C479.435 137.647 479.708 138.053 479.895 138.52C480.095 138.987 480.195 139.507 480.195 140.08C480.195 140.907 479.962 141.633 479.495 142.26C479.042 142.887 478.422 143.373 477.635 143.72C476.862 144.067 475.995 144.24 475.035 144.24ZM475.035 141.98C475.862 141.98 476.482 141.78 476.895 141.38C477.322 140.98 477.535 140.473 477.535 139.86C477.535 139.18 477.315 138.647 476.875 138.26C476.435 137.86 475.822 137.66 475.035 137.66C474.248 137.66 473.628 137.86 473.175 138.26C472.735 138.647 472.515 139.18 472.515 139.86C472.515 140.473 472.728 140.98 473.155 141.38C473.595 141.78 474.222 141.98 475.035 141.98ZM475.035 135.68C475.715 135.68 476.242 135.507 476.615 135.16C476.988 134.813 477.175 134.367 477.175 133.82C477.175 133.233 476.988 132.78 476.615 132.46C476.242 132.127 475.715 131.96 475.035 131.96C474.355 131.96 473.828 132.127 473.455 132.46C473.082 132.78 472.895 133.24 472.895 133.84C472.895 134.373 473.082 134.813 473.455 135.16C473.828 135.507 474.355 135.68 475.035 135.68Z" fill="#72767C"/>
<g filter="url(#filter4_d_294_1239)">
<rect x="504" y="102" width="50" height="70" rx="4" fill="#A162F7" shape-rendering="crispEdges"/>
<path d="M517.36 144V130H523.1C524.073 130 524.887 130.153 525.54 130.46C526.207 130.767 526.713 131.193 527.06 131.74C527.407 132.273 527.58 132.893 527.58 133.6C527.58 134.307 527.427 134.9 527.12 135.38C526.813 135.86 526.407 136.233 525.9 136.5C525.407 136.753 524.86 136.9 524.26 136.94L524.58 136.72C525.22 136.747 525.787 136.92 526.28 137.24C526.787 137.547 527.18 137.96 527.46 138.48C527.753 139 527.9 139.567 527.9 140.18C527.9 140.927 527.72 141.587 527.36 142.16C527 142.733 526.473 143.187 525.78 143.52C525.1 143.84 524.267 144 523.28 144H517.36ZM520.06 141.8H522.86C523.593 141.8 524.16 141.633 524.56 141.3C524.96 140.967 525.16 140.487 525.16 139.86C525.16 139.233 524.953 138.747 524.54 138.4C524.127 138.04 523.553 137.86 522.82 137.86H520.06V141.8ZM520.06 135.84H522.66C523.367 135.84 523.9 135.68 524.26 135.36C524.633 135.04 524.82 134.587 524.82 134C524.82 133.427 524.633 132.98 524.26 132.66C523.9 132.327 523.36 132.16 522.64 132.16H520.06V135.84ZM534.679 144.24C533.692 144.24 532.859 144.053 532.179 143.68C531.512 143.293 530.992 142.793 530.619 142.18C530.246 141.553 530.026 140.887 529.959 140.18H532.459C532.579 140.767 532.826 141.22 533.199 141.54C533.586 141.86 534.086 142.02 534.699 142.02C535.272 142.02 535.766 141.853 536.179 141.52C536.606 141.173 536.939 140.66 537.179 139.98C537.432 139.287 537.572 138.42 537.599 137.38C537.599 137.353 537.599 137.327 537.599 137.3C537.599 137.273 537.599 137.24 537.599 137.2C537.399 137.56 537.119 137.88 536.759 138.16C536.399 138.44 535.992 138.66 535.539 138.82C535.099 138.98 534.626 139.06 534.119 139.06C533.359 139.06 532.639 138.873 531.959 138.5C531.279 138.127 530.726 137.6 530.299 136.92C529.886 136.24 529.679 135.433 529.679 134.5C529.679 133.647 529.886 132.86 530.299 132.14C530.712 131.42 531.286 130.847 532.019 130.42C532.766 129.98 533.619 129.76 534.579 129.76C535.646 129.76 536.539 129.96 537.259 130.36C537.992 130.747 538.572 131.267 538.999 131.92C539.439 132.56 539.752 133.287 539.939 134.1C540.139 134.9 540.239 135.713 540.239 136.54C540.239 138.1 540.019 139.46 539.579 140.62C539.152 141.767 538.519 142.66 537.679 143.3C536.852 143.927 535.852 144.24 534.679 144.24ZM534.759 136.78C535.239 136.78 535.666 136.68 536.039 136.48C536.412 136.267 536.706 135.987 536.919 135.64C537.146 135.28 537.259 134.88 537.259 134.44C537.259 133.973 537.146 133.567 536.919 133.22C536.706 132.86 536.406 132.58 536.019 132.38C535.646 132.18 535.219 132.08 534.739 132.08C534.259 132.08 533.832 132.18 533.459 132.38C533.086 132.58 532.792 132.853 532.579 133.2C532.366 133.547 532.259 133.953 532.259 134.42C532.259 134.887 532.366 135.3 532.579 135.66C532.792 136.007 533.086 136.28 533.459 136.48C533.846 136.68 534.279 136.78 534.759 136.78Z" fill="white"/>
</g>
<rect x="564" y="102" width="50" height="70" rx="4" fill="white"/>
<path d="M572.86 144V130H578.6C579.573 130 580.387 130.153 581.04 130.46C581.707 130.767 582.213 131.193 582.56 131.74C582.907 132.273 583.08 132.893 583.08 133.6C583.08 134.307 582.927 134.9 582.62 135.38C582.313 135.86 581.907 136.233 581.4 136.5C580.907 136.753 580.36 136.9 579.76 136.94L580.08 136.72C580.72 136.747 581.287 136.92 581.78 137.24C582.287 137.547 582.68 137.96 582.96 138.48C583.253 139 583.4 139.567 583.4 140.18C583.4 140.927 583.22 141.587 582.86 142.16C582.5 142.733 581.973 143.187 581.28 143.52C580.6 143.84 579.767 144 578.78 144H572.86ZM575.56 141.8H578.36C579.093 141.8 579.66 141.633 580.06 141.3C580.46 140.967 580.66 140.487 580.66 139.86C580.66 139.233 580.453 138.747 580.04 138.4C579.627 138.04 579.053 137.86 578.32 137.86H575.56V141.8ZM575.56 135.84H578.16C578.867 135.84 579.4 135.68 579.76 135.36C580.133 135.04 580.32 134.587 580.32 134C580.32 133.427 580.133 132.98 579.76 132.66C579.4 132.327 578.86 132.16 578.14 132.16H575.56V135.84ZM587.195 144V133.1L584.795 133.68V131.56L588.335 130H589.995V144H587.195ZM598.444 144.24C597.15 144.24 596.044 143.933 595.124 143.32C594.204 142.707 593.49 141.86 592.984 140.78C592.49 139.687 592.244 138.427 592.244 137C592.244 135.573 592.49 134.32 592.984 133.24C593.49 132.147 594.204 131.293 595.124 130.68C596.044 130.067 597.15 129.76 598.444 129.76C599.737 129.76 600.844 130.067 601.764 130.68C602.684 131.293 603.39 132.147 603.884 133.24C604.377 134.32 604.624 135.573 604.624 137C604.624 138.427 604.377 139.687 603.884 140.78C603.39 141.86 602.677 142.707 601.744 143.32C600.824 143.933 599.724 144.24 598.444 144.24ZM598.444 141.82C599.124 141.82 599.717 141.627 600.224 141.24C600.744 140.84 601.144 140.28 601.424 139.56C601.717 138.84 601.864 137.987 601.864 137C601.864 136 601.717 135.147 601.424 134.44C601.144 133.72 600.744 133.167 600.224 132.78C599.717 132.393 599.124 132.2 598.444 132.2C597.764 132.2 597.164 132.393 596.644 132.78C596.124 133.167 595.717 133.72 595.424 134.44C595.144 135.147 595.004 136 595.004 137C595.004 137.987 595.144 138.84 595.424 139.56C595.717 140.28 596.124 140.84 596.644 141.24C597.164 141.627 597.764 141.82 598.444 141.82Z" fill="#72767C"/>
<defs>
<filter id="filter0_d_294_1239" x="180" y="0" width="98" height="118" filterUnits="userSpaceOnUse" color-interpolation-filters="sRGB">
<feFlood flood-opacity="0" result="BackgroundImageFix"/>
<feColorMatrix in="SourceAlpha" type="matrix" values="0 0 0 0 0 0 0 0 0 0 0 0 0 0 0 0 0 0 127 0" result="hardAlpha"/>
<feOffset dy="8"/>
<feGaussianBlur stdDeviation="12"/>
<feComposite in2="hardAlpha" operator="out"/>
<feColorMatrix type="matrix" values="0 0 0 0 1 0 0 0 0 0.494118 0 0 0 0 0.52549 0 0 0 0.3 0"/>
<feBlend mode="normal" in2="BackgroundImageFix" result="effect1_dropShadow_294_1239"/>
<feBlend mode="normal" in="SourceGraphic" in2="effect1_dropShadow_294_1239" result="shape"/>
</filter>
<filter id="filter1_d_294_1239" x="540" y="0" width="98" height="118" filterUnits="userSpaceOnUse" color-interpolation-filters="sRGB">
<feFlood flood-opacity="0" result="BackgroundImageFix"/>
<feColorMatrix in="SourceAlpha" type="matrix" values="0 0 0 0 0 0 0 0 0 0 0 0 0 0 0 0 0 0 127 0" result="hardAlpha"/>
<feOffset dy="8"/>
<feGaussianBlur stdDeviation="12"/>
<feComposite in2="hardAlpha" operator="out"/>
<feColorMatrix type="matrix" values="0 0 0 0 1 0 0 0 0 0.494118 0 0 0 0 0.52549 0 0 0 0.3 0"/>
<feBlend mode="normal" in2="BackgroundImageFix" result="effect1_dropShadow_294_1239"/>
<feBlend mode="normal" in="SourceGraphic" in2="effect1_dropShadow_294_1239" result="shape"/>
</filter>
<filter id="filter2_d_294_1239" x="0" y="86" width="98" height="118" filterUnits="userSpaceOnUse" color-interpolation-filters="sRGB">
<feFlood flood-opacity="0" result="BackgroundImageFix"/>
<feColorMatrix in="SourceAlpha" type="matrix" values="0 0 0 0 0 0 0 0 0 0 0 0 0 0 0 0 0 0 127 0" result="hardAlpha"/>
<feOffset dy="8"/>
<feGaussianBlur stdDeviation="12"/>
<feComposite in2="hardAlpha" operator="out"/>
<feColorMatrix type="matrix" values="0 0 0 0 1 0 0 0 0 0.494118 0 0 0 0 0.52549 0 0 0 0.3 0"/>
<feBlend mode="normal" in2="BackgroundImageFix" result="effect1_dropShadow_294_1239"/>
<feBlend mode="normal" in="SourceGraphic" in2="effect1_dropShadow_294_1239" result="shape"/>
</filter>
<filter id="filter3_d_294_1239" x="360" y="86" width="98" height="118" filterUnits="userSpaceOnUse" color-interpolation-filters="sRGB">
<feFlood flood-opacity="0" result="BackgroundImageFix"/>
<feColorMatrix in="SourceAlpha" type="matrix" values="0 0 0 0 0 0 0 0 0 0 0 0 0 0 0 0 0 0 127 0" result="hardAlpha"/>
<feOffset dy="8"/>
<feGaussianBlur stdDeviation="12"/>
<feComposite in2="hardAlpha" operator="out"/>
<feColorMatrix type="matrix" values="0 0 0 0 1 0 0 0 0 0.494118 0 0 0 0 0.52549 0 0 0 0.3 0"/>
<feBlend mode="normal" in2="BackgroundImageFix" result="effect1_dropShadow_294_1239"/>
<feBlend mode="normal" in="SourceGraphic" in2="effect1_dropShadow_294_1239" result="shape"/>
</filter>
<filter id="filter4_d_294_1239" x="480" y="86" width="98" height="118" filterUnits="userSpaceOnUse" color-interpolation-filters="sRGB">
<feFlood flood-opacity="0" result="BackgroundImageFix"/>
<feColorMatrix in="SourceAlpha" type="matrix" values="0 0 0 0 0 0 0 0 0 0 0 0 0 0 0 0 0 0 127 0" result="hardAlpha"/>
<feOffset dy="8"/>
<feGaussianBlur stdDeviation="12"/>
<feComposite in2="hardAlpha" operator="out"/>
<feColorMatrix type="matrix" values="0 0 0 0 0.631372 0 0 0 0 0.384314 0 0 0 0 0.968627 0 0 0 0.24 0"/>
<feBlend mode="normal" in2="BackgroundImageFix" result="effect1_dropShadow_294_1239"/>
<feBlend mode="normal" in="SourceGraphic" in2="effect1_dropShadow_294_1239" result="shape"/>
</filter>
</defs>
</svg>
