<svg width="351" height="16" viewBox="0 0 351 16" fill="none" xmlns="http://www.w3.org/2000/svg">
<path d="M12 7.52002C12 10.8337 9.31371 13.52 6 13.52C2.68629 13.52 0 10.8337 0 7.52002C0 4.20631 2.68629 1.52002 6 1.52002C9.31371 1.52002 12 4.20631 12 7.52002Z" fill="white"/>
<path fill-rule="evenodd" clip-rule="evenodd" d="M26 13.02C29.0376 13.02 31.5 10.5576 31.5 7.52002C31.5 4.48245 29.0376 2.02002 26 2.02002C22.9624 2.02002 20.5 4.48245 20.5 7.52002C20.5 10.5576 22.9624 13.02 26 13.02ZM26 13.52C29.3137 13.52 32 10.8337 32 7.52002C32 4.20631 29.3137 1.52002 26 1.52002C22.6863 1.52002 20 4.20631 20 7.52002C20 10.8337 22.6863 13.52 26 13.52Z" fill="#72767C"/>
<path d="M40 11.52V0.32H43.856C44.7413 0.32 45.4667 0.469333 46.032 0.768C46.608 1.06667 47.0347 1.472 47.312 1.984C47.5893 2.48533 47.728 3.04533 47.728 3.664C47.728 4.35733 47.5413 4.98667 47.168 5.552C46.8053 6.11733 46.2347 6.52267 45.456 6.768L47.84 11.52H45.872L43.696 7.008H41.696V11.52H40ZM41.696 5.728H43.76C44.528 5.728 45.088 5.54133 45.44 5.168C45.8027 4.79467 45.984 4.30933 45.984 3.712C45.984 3.11467 45.808 2.64 45.456 2.288C45.104 1.92533 44.5333 1.744 43.744 1.744H41.696V5.728Z" fill="#72767C"/>
<path d="M52.898 11.712C52.1193 11.712 51.426 11.5413 50.818 11.2C50.2207 10.848 49.7513 10.3627 49.41 9.744C49.0687 9.12533 48.898 8.40533 48.898 7.584C48.898 6.752 49.0633 6.02133 49.394 5.392C49.7353 4.76267 50.2047 4.272 50.802 3.92C51.41 3.568 52.114 3.392 52.914 3.392C53.6927 3.392 54.37 3.568 54.946 3.92C55.522 4.26133 55.97 4.72 56.29 5.296C56.61 5.872 56.77 6.50667 56.77 7.2C56.77 7.30667 56.7647 7.424 56.754 7.552C56.754 7.66933 56.7487 7.80267 56.738 7.952H50.562C50.6153 8.72 50.866 9.30667 51.314 9.712C51.7727 10.1067 52.3007 10.304 52.898 10.304C53.378 10.304 53.778 10.1973 54.098 9.984C54.4287 9.76 54.674 9.46133 54.834 9.088H56.53C56.3167 9.83467 55.89 10.4587 55.25 10.96C54.6207 11.4613 53.8367 11.712 52.898 11.712ZM52.898 4.784C52.3327 4.784 51.8313 4.95467 51.394 5.296C50.9567 5.62667 50.69 6.128 50.594 6.8H55.074C55.042 6.18133 54.8233 5.69067 54.418 5.328C54.0127 4.96533 53.506 4.784 52.898 4.784Z" fill="#72767C"/>
<path d="M61.2178 11.712C60.5457 11.712 59.9911 11.6 59.5538 11.376C59.1164 11.152 58.7911 10.8587 58.5778 10.496C58.3644 10.1227 58.2577 9.71733 58.2577 9.28C58.2577 8.512 58.5564 7.904 59.1537 7.456C59.7511 7.008 60.6044 6.784 61.7138 6.784H63.7938V6.64C63.7938 6.02133 63.6231 5.55733 63.2818 5.248C62.9511 4.93867 62.5191 4.784 61.9858 4.784C61.5164 4.784 61.1057 4.90133 60.7537 5.136C60.4124 5.36 60.2044 5.696 60.1298 6.144H58.4338C58.4871 5.568 58.6791 5.07733 59.0098 4.672C59.3511 4.256 59.7778 3.94133 60.2898 3.728C60.8124 3.504 61.3831 3.392 62.0018 3.392C63.1111 3.392 63.9698 3.68533 64.5778 4.272C65.1858 4.848 65.4898 5.63733 65.4898 6.64V11.52H64.0178L63.8738 10.16C63.6497 10.5973 63.3244 10.9653 62.8978 11.264C62.4711 11.5627 61.9111 11.712 61.2178 11.712ZM61.5538 10.336C62.0124 10.336 62.3964 10.2293 62.7058 10.016C63.0258 9.792 63.2711 9.49867 63.4418 9.136C63.6231 8.77333 63.7351 8.37333 63.7778 7.936H61.8897C61.2178 7.936 60.7378 8.05333 60.4498 8.288C60.1724 8.52267 60.0338 8.816 60.0338 9.168C60.0338 9.53067 60.1671 9.81867 60.4338 10.032C60.7111 10.2347 61.0844 10.336 61.5538 10.336Z" fill="#72767C"/>
<path d="M71.0833 11.712C70.3153 11.712 69.6379 11.5307 69.0513 11.168C68.4646 10.8053 68.0059 10.3093 67.6753 9.68C67.3446 9.05067 67.1793 8.336 67.1793 7.536C67.1793 6.736 67.3446 6.02667 67.6753 5.408C68.0059 4.77867 68.4646 4.288 69.0513 3.936C69.6486 3.57333 70.3312 3.392 71.0992 3.392C71.7286 3.392 72.2779 3.51467 72.7472 3.76C73.2272 4.00533 73.6006 4.352 73.8672 4.8V0H75.5632V11.52H74.0432L73.8672 10.288C73.6112 10.6613 73.2592 10.992 72.8112 11.28C72.3633 11.568 71.7873 11.712 71.0833 11.712ZM71.3873 10.24C72.1126 10.24 72.7046 9.98933 73.1632 9.488C73.6326 8.98667 73.8672 8.34133 73.8672 7.552C73.8672 6.752 73.6326 6.10667 73.1632 5.616C72.7046 5.11467 72.1126 4.864 71.3873 4.864C70.6619 4.864 70.0646 5.11467 69.5953 5.616C69.1259 6.10667 68.8913 6.752 68.8913 7.552C68.8913 8.07467 68.9979 8.53867 69.2113 8.944C69.4246 9.34933 69.7179 9.66933 70.0912 9.904C70.4753 10.128 70.9073 10.24 71.3873 10.24Z" fill="#72767C"/>
<path d="M78.6296 15.04L80.5336 10.864H80.0696L76.9336 3.584H78.7736L81.2056 9.456L83.7496 3.584H85.5416L80.4216 15.04H78.6296Z" fill="#72767C"/>
<path d="M125.542 5.85596C125.542 8.61738 123.303 10.856 120.542 10.856C117.78 10.856 115.542 8.61738 115.542 5.85596C115.542 3.09453 117.78 0.855957 120.542 0.855957C123.303 0.855957 125.542 3.09453 125.542 5.85596Z" fill="#FF6370"/>
<path d="M133.542 11.52V0.32H137.766C138.928 0.32 139.808 0.592 140.406 1.136C141.003 1.68 141.302 2.36267 141.302 3.184C141.302 3.89867 141.11 4.46933 140.726 4.896C140.342 5.312 139.878 5.59467 139.334 5.744C139.76 5.82933 140.139 6 140.47 6.256C140.811 6.512 141.078 6.832 141.27 7.216C141.462 7.6 141.558 8.016 141.558 8.464C141.558 9.04 141.414 9.56267 141.126 10.032C140.848 10.4907 140.438 10.8533 139.894 11.12C139.35 11.3867 138.683 11.52 137.894 11.52H133.542ZM135.238 5.12H137.558C138.208 5.12 138.704 4.97067 139.046 4.672C139.387 4.36267 139.558 3.94133 139.558 3.408C139.558 2.88533 139.387 2.46933 139.046 2.16C138.715 1.85067 138.208 1.696 137.526 1.696H135.238V5.12ZM135.238 10.128H137.67C138.352 10.128 138.88 9.968 139.254 9.648C139.638 9.328 139.83 8.88 139.83 8.304C139.83 7.728 139.632 7.27467 139.238 6.944C138.843 6.60267 138.31 6.432 137.638 6.432H135.238V10.128Z" fill="#72767C"/>
<path d="M147.065 11.712C146.307 11.712 145.625 11.5413 145.017 11.2C144.419 10.848 143.945 10.3627 143.593 9.744C143.241 9.11467 143.065 8.384 143.065 7.552C143.065 6.72 143.241 5.99467 143.593 5.376C143.955 4.74667 144.441 4.26133 145.049 3.92C145.657 3.568 146.334 3.392 147.081 3.392C147.838 3.392 148.515 3.568 149.113 3.92C149.721 4.26133 150.201 4.74667 150.553 5.376C150.915 5.99467 151.097 6.72 151.097 7.552C151.097 8.384 150.915 9.11467 150.553 9.744C150.201 10.3627 149.721 10.848 149.113 11.2C148.505 11.5413 147.822 11.712 147.065 11.712ZM147.065 10.256C147.47 10.256 147.843 10.1547 148.185 9.952C148.537 9.74933 148.819 9.45067 149.033 9.056C149.246 8.65067 149.353 8.14933 149.353 7.552C149.353 6.95467 149.246 6.45867 149.033 6.064C148.83 5.65867 148.553 5.35467 148.201 5.152C147.859 4.94933 147.486 4.848 147.081 4.848C146.675 4.848 146.297 4.94933 145.945 5.152C145.603 5.35467 145.326 5.65867 145.113 6.064C144.899 6.45867 144.793 6.95467 144.793 7.552C144.793 8.14933 144.899 8.65067 145.113 9.056C145.326 9.45067 145.603 9.74933 145.945 9.952C146.286 10.1547 146.659 10.256 147.065 10.256Z" fill="#72767C"/>
<path d="M156.643 11.712C155.885 11.712 155.203 11.5413 154.595 11.2C153.997 10.848 153.523 10.3627 153.171 9.744C152.819 9.11467 152.643 8.384 152.643 7.552C152.643 6.72 152.819 5.99467 153.171 5.376C153.533 4.74667 154.019 4.26133 154.627 3.92C155.235 3.568 155.912 3.392 156.659 3.392C157.416 3.392 158.093 3.568 158.691 3.92C159.299 4.26133 159.779 4.74667 160.131 5.376C160.493 5.99467 160.675 6.72 160.675 7.552C160.675 8.384 160.493 9.11467 160.131 9.744C159.779 10.3627 159.299 10.848 158.691 11.2C158.083 11.5413 157.4 11.712 156.643 11.712ZM156.643 10.256C157.048 10.256 157.421 10.1547 157.763 9.952C158.115 9.74933 158.397 9.45067 158.611 9.056C158.824 8.65067 158.931 8.14933 158.931 7.552C158.931 6.95467 158.824 6.45867 158.611 6.064C158.408 5.65867 158.131 5.35467 157.779 5.152C157.437 4.94933 157.064 4.848 156.659 4.848C156.253 4.848 155.875 4.94933 155.523 5.152C155.181 5.35467 154.904 5.65867 154.691 6.064C154.477 6.45867 154.371 6.95467 154.371 7.552C154.371 8.14933 154.477 8.65067 154.691 9.056C154.904 9.45067 155.181 9.74933 155.523 9.952C155.864 10.1547 156.237 10.256 156.643 10.256Z" fill="#72767C"/>
<path d="M162.509 11.52V0H164.205V6.864L167.245 3.584H169.277L165.901 7.184L169.773 11.52H167.629L164.205 7.456V11.52H162.509Z" fill="#72767C"/>
<path d="M174.19 11.712C173.411 11.712 172.718 11.5413 172.11 11.2C171.512 10.848 171.043 10.3627 170.702 9.744C170.36 9.12533 170.19 8.40533 170.19 7.584C170.19 6.752 170.355 6.02133 170.686 5.392C171.027 4.76267 171.496 4.272 172.094 3.92C172.702 3.568 173.406 3.392 174.206 3.392C174.984 3.392 175.662 3.568 176.238 3.92C176.814 4.26133 177.262 4.72 177.582 5.296C177.902 5.872 178.062 6.50667 178.062 7.2C178.062 7.30667 178.056 7.424 178.046 7.552C178.046 7.66933 178.04 7.80267 178.03 7.952H171.854C171.907 8.72 172.158 9.30667 172.606 9.712C173.064 10.1067 173.592 10.304 174.19 10.304C174.67 10.304 175.07 10.1973 175.39 9.984C175.72 9.76 175.966 9.46133 176.126 9.088H177.822C177.608 9.83467 177.182 10.4587 176.542 10.96C175.912 11.4613 175.128 11.712 174.19 11.712ZM174.19 4.784C173.624 4.784 173.123 4.95467 172.686 5.296C172.248 5.62667 171.982 6.128 171.886 6.8H176.366C176.334 6.18133 176.115 5.69067 175.71 5.328C175.304 4.96533 174.798 4.784 174.19 4.784Z" fill="#72767C"/>
<path d="M183.437 11.712C182.669 11.712 181.992 11.5307 181.405 11.168C180.819 10.8053 180.36 10.3093 180.029 9.68C179.699 9.05067 179.533 8.336 179.533 7.536C179.533 6.736 179.699 6.02667 180.029 5.408C180.36 4.77867 180.819 4.288 181.405 3.936C182.003 3.57333 182.685 3.392 183.453 3.392C184.083 3.392 184.632 3.51467 185.101 3.76C185.581 4.00533 185.955 4.352 186.221 4.8V0H187.917V11.52H186.397L186.221 10.288C185.965 10.6613 185.613 10.992 185.165 11.28C184.717 11.568 184.141 11.712 183.437 11.712ZM183.741 10.24C184.467 10.24 185.059 9.98933 185.517 9.488C185.987 8.98667 186.221 8.34133 186.221 7.552C186.221 6.752 185.987 6.10667 185.517 5.616C185.059 5.11467 184.467 4.864 183.741 4.864C183.016 4.864 182.419 5.11467 181.949 5.616C181.48 6.10667 181.245 6.752 181.245 7.552C181.245 8.07467 181.352 8.53867 181.565 8.944C181.779 9.34933 182.072 9.66933 182.445 9.904C182.829 10.128 183.261 10.24 183.741 10.24Z" fill="#72767C"/>
<path d="M227.917 5.85596C227.917 8.61738 225.679 10.856 222.917 10.856C220.156 10.856 217.917 8.61738 217.917 5.85596C217.917 3.09453 220.156 0.855957 222.917 0.855957C225.679 0.855957 227.917 3.09453 227.917 5.85596Z" fill="#A162F7"/>
<path d="M241.309 11.712C240.2 11.712 239.24 11.472 238.429 10.992C237.629 10.5013 237.011 9.824 236.573 8.96C236.136 8.08533 235.917 7.07733 235.917 5.936C235.917 4.784 236.136 3.776 236.573 2.912C237.011 2.03733 237.629 1.35467 238.429 0.864C239.24 0.373334 240.2 0.128 241.309 0.128C242.621 0.128 243.693 0.448 244.525 1.088C245.357 1.728 245.885 2.624 246.109 3.776H244.221C244.072 3.12533 243.752 2.608 243.261 2.224C242.771 1.84 242.115 1.648 241.293 1.648C240.173 1.648 239.288 2.032 238.637 2.8C237.987 3.55733 237.661 4.60267 237.661 5.936C237.661 7.25867 237.987 8.29867 238.637 9.056C239.288 9.81333 240.173 10.192 241.293 10.192C242.115 10.192 242.771 10.0107 243.261 9.648C243.752 9.28533 244.072 8.78933 244.221 8.16H246.109C245.885 9.26933 245.357 10.1387 244.525 10.768C243.693 11.3973 242.621 11.712 241.309 11.712Z" fill="#72767C"/>
<path d="M250.838 11.712C249.878 11.712 249.12 11.4133 248.566 10.816C248.022 10.2187 247.75 9.328 247.75 8.144V3.584H249.446V7.968C249.446 9.504 250.075 10.272 251.334 10.272C251.963 10.272 252.48 10.048 252.886 9.6C253.291 9.152 253.494 8.512 253.494 7.68V3.584H255.19V11.52H253.686L253.558 10.128C253.312 10.6187 252.95 11.008 252.47 11.296C252 11.5733 251.456 11.712 250.838 11.712Z" fill="#72767C"/>
<path d="M257.347 11.52V3.584H258.867L259.011 5.088C259.288 4.56533 259.672 4.15467 260.163 3.856C260.664 3.54667 261.267 3.392 261.971 3.392V5.168H261.507C261.038 5.168 260.616 5.248 260.243 5.408C259.88 5.55733 259.587 5.81867 259.363 6.192C259.15 6.55467 259.043 7.06133 259.043 7.712V11.52H257.347Z" fill="#72767C"/>
<path d="M263.425 11.52V3.584H264.945L265.089 5.088C265.367 4.56533 265.751 4.15467 266.241 3.856C266.743 3.54667 267.345 3.392 268.049 3.392V5.168H267.585C267.116 5.168 266.695 5.248 266.321 5.408C265.959 5.55733 265.665 5.81867 265.441 6.192C265.228 6.55467 265.121 7.06133 265.121 7.712V11.52H263.425Z" fill="#72767C"/>
<path d="M272.997 11.712C272.218 11.712 271.525 11.5413 270.917 11.2C270.319 10.848 269.85 10.3627 269.509 9.744C269.167 9.12533 268.997 8.40533 268.997 7.584C268.997 6.752 269.162 6.02133 269.493 5.392C269.834 4.76267 270.303 4.272 270.901 3.92C271.509 3.568 272.213 3.392 273.013 3.392C273.791 3.392 274.469 3.568 275.045 3.92C275.621 4.26133 276.069 4.72 276.389 5.296C276.709 5.872 276.869 6.50667 276.869 7.2C276.869 7.30667 276.863 7.424 276.853 7.552C276.853 7.66933 276.847 7.80267 276.837 7.952H270.661C270.714 8.72 270.965 9.30667 271.413 9.712C271.871 10.1067 272.399 10.304 272.997 10.304C273.477 10.304 273.877 10.1973 274.197 9.984C274.527 9.76 274.773 9.46133 274.933 9.088H276.629C276.415 9.83467 275.989 10.4587 275.349 10.96C274.719 11.4613 273.935 11.712 272.997 11.712ZM272.997 4.784C272.431 4.784 271.93 4.95467 271.493 5.296C271.055 5.62667 270.789 6.128 270.693 6.8H275.173C275.141 6.18133 274.922 5.69067 274.517 5.328C274.111 4.96533 273.605 4.784 272.997 4.784Z" fill="#72767C"/>
<path d="M278.628 11.52V3.584H280.132L280.26 4.976C280.506 4.48533 280.863 4.10133 281.332 3.824C281.812 3.536 282.362 3.392 282.98 3.392C283.94 3.392 284.692 3.69067 285.236 4.288C285.791 4.88533 286.068 5.776 286.068 6.96V11.52H284.388V7.136C284.388 5.6 283.759 4.832 282.5 4.832C281.871 4.832 281.348 5.056 280.932 5.504C280.527 5.952 280.324 6.592 280.324 7.424V11.52H278.628Z" fill="#72767C"/>
<path d="M291.394 11.52C290.615 11.52 289.997 11.3333 289.538 10.96C289.079 10.576 288.85 9.89867 288.85 8.928V5.008H287.49V3.584H288.85L289.058 1.568H290.546V3.584H292.786V5.008H290.546V8.928C290.546 9.36533 290.637 9.66933 290.818 9.84C291.01 10 291.335 10.08 291.794 10.08H292.706V11.52H291.394Z" fill="#72767C"/>
<path d="M302.326 11.712C301.505 11.712 300.785 11.568 300.166 11.28C299.547 10.992 299.062 10.5813 298.71 10.048C298.369 9.51467 298.193 8.88 298.182 8.144H299.974C299.985 8.74133 300.193 9.248 300.598 9.664C301.003 10.08 301.574 10.288 302.31 10.288C302.961 10.288 303.467 10.1333 303.83 9.824C304.203 9.504 304.39 9.09867 304.39 8.608C304.39 8.21333 304.299 7.89333 304.118 7.648C303.947 7.40267 303.707 7.2 303.398 7.04C303.099 6.88 302.753 6.736 302.358 6.608C301.963 6.48 301.547 6.34133 301.11 6.192C300.246 5.904 299.595 5.53067 299.158 5.072C298.731 4.61333 298.518 4.01067 298.518 3.264C298.507 2.63467 298.651 2.08533 298.95 1.616C299.259 1.14667 299.686 0.784 300.23 0.528C300.785 0.261333 301.43 0.128 302.166 0.128C302.891 0.128 303.526 0.261333 304.07 0.528C304.625 0.794666 305.057 1.168 305.366 1.648C305.675 2.11733 305.835 2.66667 305.846 3.296H304.054C304.054 3.008 303.979 2.736 303.83 2.48C303.681 2.21333 303.462 1.99467 303.174 1.824C302.886 1.65333 302.534 1.568 302.118 1.568C301.585 1.55733 301.142 1.69067 300.79 1.968C300.449 2.24533 300.278 2.62933 300.278 3.12C300.278 3.55733 300.406 3.89333 300.662 4.128C300.918 4.36267 301.27 4.56 301.718 4.72C302.166 4.86933 302.678 5.04533 303.254 5.248C303.809 5.42933 304.305 5.648 304.742 5.904C305.179 6.16 305.526 6.496 305.782 6.912C306.049 7.328 306.182 7.856 306.182 8.496C306.182 9.06133 306.038 9.58933 305.75 10.08C305.462 10.56 305.03 10.9547 304.454 11.264C303.878 11.5627 303.169 11.712 302.326 11.712Z" fill="#72767C"/>
<path d="M311.3 11.52C310.521 11.52 309.903 11.3333 309.444 10.96C308.985 10.576 308.756 9.89867 308.756 8.928V5.008H307.396V3.584H308.756L308.964 1.568H310.452V3.584H312.692V5.008H310.452V8.928C310.452 9.36533 310.543 9.66933 310.724 9.84C310.916 10 311.241 10.08 311.7 10.08H312.612V11.52H311.3Z" fill="#72767C"/>
<path d="M317.129 11.712C316.457 11.712 315.902 11.6 315.465 11.376C315.028 11.152 314.702 10.8587 314.489 10.496C314.276 10.1227 314.169 9.71733 314.169 9.28C314.169 8.512 314.468 7.904 315.065 7.456C315.662 7.008 316.516 6.784 317.625 6.784H319.705V6.64C319.705 6.02133 319.534 5.55733 319.193 5.248C318.862 4.93867 318.43 4.784 317.897 4.784C317.428 4.784 317.017 4.90133 316.665 5.136C316.324 5.36 316.116 5.696 316.041 6.144H314.345C314.398 5.568 314.59 5.07733 314.921 4.672C315.262 4.256 315.689 3.94133 316.201 3.728C316.724 3.504 317.294 3.392 317.913 3.392C319.022 3.392 319.881 3.68533 320.489 4.272C321.097 4.848 321.401 5.63733 321.401 6.64V11.52H319.929L319.785 10.16C319.561 10.5973 319.236 10.9653 318.809 11.264C318.382 11.5627 317.822 11.712 317.129 11.712ZM317.465 10.336C317.924 10.336 318.308 10.2293 318.617 10.016C318.937 9.792 319.182 9.49867 319.353 9.136C319.534 8.77333 319.646 8.37333 319.689 7.936H317.801C317.129 7.936 316.649 8.05333 316.361 8.288C316.084 8.52267 315.945 8.816 315.945 9.168C315.945 9.53067 316.078 9.81867 316.345 10.032C316.622 10.2347 316.996 10.336 317.465 10.336Z" fill="#72767C"/>
<path d="M326.55 11.52C325.771 11.52 325.153 11.3333 324.694 10.96C324.235 10.576 324.006 9.89867 324.006 8.928V5.008H322.646V3.584H324.006L324.214 1.568H325.702V3.584H327.942V5.008H325.702V8.928C325.702 9.36533 325.793 9.66933 325.974 9.84C326.166 10 326.491 10.08 326.95 10.08H327.862V11.52H326.55Z" fill="#72767C"/>
<path d="M330.651 2.08C330.331 2.08 330.064 1.984 329.851 1.792C329.648 1.58933 329.547 1.33867 329.547 1.04C329.547 0.741333 329.648 0.496 329.851 0.304C330.064 0.101333 330.331 0 330.651 0C330.971 0 331.232 0.101333 331.435 0.304C331.648 0.496 331.755 0.741333 331.755 1.04C331.755 1.33867 331.648 1.58933 331.435 1.792C331.232 1.984 330.971 2.08 330.651 2.08ZM329.803 11.52V3.584H331.499V11.52H329.803Z" fill="#72767C"/>
<path d="M337.45 11.712C336.692 11.712 336.01 11.5413 335.402 11.2C334.804 10.848 334.33 10.3627 333.978 9.744C333.626 9.11467 333.45 8.384 333.45 7.552C333.45 6.72 333.626 5.99467 333.978 5.376C334.34 4.74667 334.826 4.26133 335.434 3.92C336.042 3.568 336.719 3.392 337.466 3.392C338.223 3.392 338.9 3.568 339.498 3.92C340.106 4.26133 340.586 4.74667 340.938 5.376C341.3 5.99467 341.482 6.72 341.482 7.552C341.482 8.384 341.3 9.11467 340.938 9.744C340.586 10.3627 340.106 10.848 339.498 11.2C338.89 11.5413 338.207 11.712 337.45 11.712ZM337.45 10.256C337.855 10.256 338.228 10.1547 338.57 9.952C338.922 9.74933 339.204 9.45067 339.418 9.056C339.631 8.65067 339.738 8.14933 339.738 7.552C339.738 6.95467 339.631 6.45867 339.418 6.064C339.215 5.65867 338.938 5.35467 338.586 5.152C338.244 4.94933 337.871 4.848 337.466 4.848C337.06 4.848 336.682 4.94933 336.33 5.152C335.988 5.35467 335.711 5.65867 335.498 6.064C335.284 6.45867 335.178 6.95467 335.178 7.552C335.178 8.14933 335.284 8.65067 335.498 9.056C335.711 9.45067 335.988 9.74933 336.33 9.952C336.671 10.1547 337.044 10.256 337.45 10.256Z" fill="#72767C"/>
<path d="M343.316 11.52V3.584H344.82L344.948 4.976C345.193 4.48533 345.551 4.10133 346.02 3.824C346.5 3.536 347.049 3.392 347.668 3.392C348.628 3.392 349.38 3.69067 349.924 4.288C350.479 4.88533 350.756 5.776 350.756 6.96V11.52H349.076V7.136C349.076 5.6 348.447 4.832 347.188 4.832C346.559 4.832 346.036 5.056 345.62 5.504C345.215 5.952 345.012 6.592 345.012 7.424V11.52H343.316Z" fill="#72767C"/>
</svg>
