<svg width="14" height="14" viewBox="0 0 14 14" fill="none" xmlns="http://www.w3.org/2000/svg">
<path d="M8.33712 6.3372H7.67045V5.67053C7.67045 5.49372 7.60021 5.32415 7.47519 5.19913C7.35016 5.0741 7.1806 5.00387 7.00378 5.00387C6.82697 5.00387 6.6574 5.0741 6.53238 5.19913C6.40736 5.32415 6.33712 5.49372 6.33712 5.67053V6.3372H5.67045C5.49364 6.3372 5.32407 6.40744 5.19905 6.53246C5.07402 6.65749 5.00378 6.82706 5.00378 7.00387C5.00378 7.18068 5.07402 7.35025 5.19905 7.47527C5.32407 7.6003 5.49364 7.67053 5.67045 7.67053H6.33712V8.3372C6.33712 8.51401 6.40736 8.68358 6.53238 8.8086C6.6574 8.93363 6.82697 9.00387 7.00378 9.00387C7.1806 9.00387 7.35016 8.93363 7.47519 8.8086C7.60021 8.68358 7.67045 8.51401 7.67045 8.3372V7.67053H8.33712C8.51393 7.67053 8.6835 7.6003 8.80852 7.47527C8.93355 7.35025 9.00378 7.18068 9.00378 7.00387C9.00378 6.82706 8.93355 6.65749 8.80852 6.53246C8.6835 6.40744 8.51393 6.3372 8.33712 6.3372ZM13.4771 6.53053L11.9105 5.00387V2.76387C11.9105 2.58706 11.8402 2.41749 11.7152 2.29246C11.5902 2.16744 11.4206 2.0972 11.2438 2.0972H9.03712L7.47712 0.530533C7.41514 0.468047 7.34141 0.418451 7.26017 0.384605C7.17893 0.350759 7.09179 0.333334 7.00378 0.333334C6.91578 0.333334 6.82864 0.350759 6.7474 0.384605C6.66616 0.418451 6.59243 0.468047 6.53045 0.530533L5.00378 2.0972H2.76378C2.58697 2.0972 2.4174 2.16744 2.29238 2.29246C2.16736 2.41749 2.09712 2.58706 2.09712 2.76387V5.00387L0.530451 6.53053C0.467965 6.59251 0.418369 6.66624 0.384523 6.74748C0.350677 6.82872 0.333252 6.91586 0.333252 7.00387C0.333252 7.09187 0.350677 7.17901 0.384523 7.26025C0.418369 7.34149 0.467965 7.41522 0.530451 7.4772L2.09712 9.0372V11.2439C2.09712 11.4207 2.16736 11.5902 2.29238 11.7153C2.4174 11.8403 2.58697 11.9105 2.76378 11.9105H5.00378L6.56378 13.4772C6.62576 13.5397 6.69949 13.5893 6.78073 13.6231C6.86197 13.657 6.94911 13.6744 7.03712 13.6744C7.12513 13.6744 7.21226 13.657 7.2935 13.6231C7.37474 13.5893 7.44848 13.5397 7.51045 13.4772L9.07045 11.9105H11.2771C11.4539 11.9105 11.6235 11.8403 11.7485 11.7153C11.8735 11.5902 11.9438 11.4207 11.9438 11.2439V9.0372L13.5105 7.4772C13.5708 7.41305 13.6178 7.33758 13.6489 7.25514C13.6799 7.17271 13.6943 7.08494 13.6912 6.99692C13.6881 6.90889 13.6675 6.82236 13.6308 6.74231C13.5941 6.66226 13.5418 6.59028 13.4771 6.53053ZM10.7771 8.29053C10.7141 8.35228 10.664 8.42591 10.6297 8.50716C10.5953 8.58841 10.5775 8.67566 10.5771 8.76387V10.5772H8.76378C8.67558 10.5776 8.58832 10.5954 8.50707 10.6298C8.42582 10.6641 8.35219 10.7142 8.29045 10.7772L7.00378 12.0639L5.71712 10.7772C5.65537 10.7142 5.58175 10.6641 5.50049 10.6298C5.41924 10.5954 5.33199 10.5776 5.24378 10.5772H3.43045V8.76387C3.43008 8.67566 3.41222 8.58841 3.37789 8.50716C3.34356 8.42591 3.29344 8.35228 3.23045 8.29053L1.94378 7.00387L3.23045 5.7172C3.29344 5.65546 3.34356 5.58183 3.37789 5.50058C3.41222 5.41933 3.43008 5.33207 3.43045 5.24387V3.43053H5.24378C5.33199 3.43017 5.41924 3.4123 5.50049 3.37797C5.58175 3.34364 5.65537 3.29353 5.71712 3.23053L7.00378 1.94387L8.29045 3.23053C8.35219 3.29353 8.42582 3.34364 8.50707 3.37797C8.58832 3.4123 8.67558 3.43017 8.76378 3.43053H10.5771V5.24387C10.5775 5.33207 10.5953 5.41933 10.6297 5.50058C10.664 5.58183 10.7141 5.65546 10.7771 5.7172L12.0638 7.00387L10.7771 8.29053Z" fill="#72767C"/>
</svg>
